<?xml version="1.0" standalone="no"?>
<!DOCTYPE svg PUBLIC "-//W3C//DTD SVG 20010904//EN"
 "http://www.w3.org/TR/2001/REC-SVG-20010904/DTD/svg10.dtd">
<svg version="1.0" xmlns="http://www.w3.org/2000/svg"
 width="763.000000pt" height="254.000000pt" viewBox="0 0 763.000000 254.000000"
 preserveAspectRatio="xMidYMid meet">

<g transform="translate(0.000000,254.000000) scale(0.100000,-0.100000)"
fill="#000000" stroke="none">
<path d="M0 1270 l0 -1270 3815 0 3815 0 0 1270 0 1270 -3815 0 -3815 0 0
-1270z m2288 588 c17 -17 17 -469 0 -486 -8 -8 -57 -12 -156 -12 -121 0 -143
-2 -139 -14 3 -8 9 -31 13 -50 5 -31 10 -36 33 -36 31 0 51 -16 51 -42 0 -31
-35 -39 -156 -36 -99 3 -119 6 -128 21 -15 24 3 51 40 57 28 5 41 27 43 78 1
22 0 22 -137 22 -94 0 -142 4 -150 12 -17 17 -17 469 0 486 17 17 669 17 686
0z m520 -184 c18 -12 21 -18 12 -29 -9 -11 -18 -10 -51 3 -71 28 -153 -16
-168 -90 -16 -74 21 -139 91 -160 31 -9 45 -8 80 5 32 13 44 14 49 5 12 -19
-8 -35 -59 -47 -54 -13 -95 -4 -143 30 -36 25 -69 90 -69 134 0 69 57 143 128
166 35 11 101 2 130 -17z m274 16 c133 -37 173 -205 69 -293 -89 -74 -215 -47
-262 57 -23 52 -23 90 0 141 22 49 48 73 98 91 47 16 49 16 95 4z m666 -10
c37 -23 51 -48 33 -60 -8 -4 -22 2 -36 16 -28 28 -71 31 -97 7 -38 -35 -18
-66 69 -103 28 -12 59 -30 68 -40 22 -24 22 -86 0 -110 -24 -26 -80 -43 -118
-36 -33 7 -87 51 -87 72 0 24 25 20 52 -8 45 -48 128 -30 128 28 0 30 -12 40
-90 78 -70 33 -89 60 -76 110 8 31 59 66 96 66 14 0 40 -9 58 -20z m1147 -9
c94 -54 110 -188 31 -267 -105 -105 -286 -28 -286 121 0 130 142 212 255 146z
m-1505 -105 l95 -124 3 124 c2 116 4 124 22 124 19 0 20 -8 20 -165 0 -138 -2
-165 -15 -165 -8 0 -58 57 -112 127 l-98 126 -3 -126 c-2 -119 -4 -127 -22
-127 -19 0 -20 8 -20 165 0 151 2 165 18 165 10 0 55 -49 112 -124z m500 -1
c0 -120 1 -127 25 -150 15 -16 36 -25 55 -25 19 0 40 9 55 25 24 23 25 30 25
150 0 118 1 125 20 125 19 0 20 -7 20 -121 0 -140 -12 -178 -65 -203 -42 -20
-68 -20 -110 0 -53 25 -65 63 -65 203 0 114 1 121 20 121 19 0 20 -7 20 -125z
m300 -20 l0 -144 72 -3 c60 -2 73 -6 76 -20 3 -16 -6 -18 -92 -18 l-96 0 0
165 c0 158 1 165 20 165 19 0 20 -7 20 -145z m408 128 c-2 -13 -15 -19 -46
-21 l-42 -3 0 -145 c0 -137 -1 -144 -20 -144 -19 0 -20 7 -20 144 l0 145 -47
3 c-36 2 -49 7 -51 21 -3 15 7 17 113 17 106 0 116 -2 113 -17z m609 -3 c57
-34 61 -121 8 -167 l-26 -23 41 -60 c39 -57 40 -60 18 -60 -17 0 -34 17 -63
60 -37 55 -43 60 -77 60 l-38 0 0 -60 c0 -53 -2 -60 -20 -60 -19 0 -20 7 -20
165 l0 165 73 0 c54 0 80 -5 104 -20z m143 -145 c0 -158 -1 -165 -20 -165 -19
0 -20 7 -20 165 0 158 1 165 20 165 19 0 20 -7 20 -165z m291 5 c38 -84 69
-158 69 -162 0 -4 -9 -8 -19 -8 -13 0 -24 13 -35 40 l-16 40 -88 0 -89 0 -16
-40 c-11 -30 -21 -40 -37 -40 -12 0 -20 4 -18 8 2 5 34 80 73 166 57 130 72
156 88 154 14 -2 37 -44 88 -158z m329 140 c0 -17 -7 -20 -45 -20 l-45 0 0
-145 c0 -138 -1 -145 -20 -145 -19 0 -20 7 -20 144 l0 145 -47 3 c-36 2 -49 7
-51 21 -3 15 7 17 112 17 109 0 116 -1 116 -20z m126 -32 c21 -29 41 -57 45
-61 4 -5 26 18 50 52 32 45 49 61 67 61 27 0 27 1 -35 -86 -24 -34 -43 -67
-43 -74 0 -6 25 -48 56 -91 53 -76 54 -79 31 -79 -20 0 -36 15 -72 65 -25 36
-47 65 -49 65 -1 0 -23 -29 -47 -65 -33 -49 -50 -65 -67 -65 -27 0 -28 -3 41
97 l49 72 -56 81 c-54 76 -55 80 -32 80 18 0 34 -14 62 -52z"/>
<path d="M1607 1853 c-4 -3 -7 -91 -7 -195 l0 -188 345 0 345 0 0 183 c0 129
-4 187 -12 195 -9 9 -98 12 -338 12 -180 0 -330 -3 -333 -7z m581 -52 c8 -4
12 -19 10 -32 -2 -17 -10 -25 -29 -27 -31 -4 -144 -126 -144 -156 0 -10 -7
-23 -16 -29 -25 -16 -49 -1 -49 31 0 36 -59 95 -96 97 -20 1 -36 -12 -72 -58
-28 -35 -46 -69 -47 -85 0 -22 -5 -27 -25 -27 -35 0 -41 41 -8 54 30 11 118
117 118 141 0 10 6 23 14 29 18 15 56 -2 56 -26 0 -22 70 -98 92 -99 26 -2
148 130 148 160 0 35 19 46 48 27z"/>
<path d="M2153 1784 c-8 -21 13 -42 28 -27 13 13 5 43 -11 43 -6 0 -13 -7 -17
-16z"/>
<path d="M1850 1726 c-13 -17 -6 -36 15 -36 19 0 26 27 11 39 -10 8 -17 7 -26
-3z"/>
<path d="M1972 1583 c5 -26 38 -29 38 -4 0 15 -6 21 -21 21 -14 0 -19 -5 -17
-17z"/>
<path d="M1700 1540 c0 -15 5 -20 18 -18 9 2 17 10 17 18 0 8 -8 16 -17 18
-13 2 -18 -3 -18 -18z"/>
<path d="M1600 1427 c0 -18 5 -38 12 -45 17 -17 649 -17 666 0 7 7 12 27 12
45 l0 33 -345 0 -345 0 0 -33z m373 -14 c-13 -2 -35 -2 -50 0 -16 2 -5 4 22 4
28 0 40 -2 28 -4z"/>
<path d="M1901 1323 c-17 -61 -16 -63 45 -63 l56 0 -7 33 c-13 65 -15 67 -50
67 -31 0 -35 -4 -44 -37z"/>
<path d="M1820 1240 c-12 -7 -12 -13 -4 -27 9 -15 29 -18 126 -21 94 -2 117 0
128 13 10 12 10 18 0 30 -10 12 -37 15 -124 15 -61 0 -118 -5 -126 -10z"/>
<path d="M2995 1646 c-89 -39 -108 -158 -35 -219 44 -38 82 -43 134 -17 98 47
101 182 5 230 -44 23 -63 24 -104 6z"/>
<path d="M4751 1642 c-96 -52 -92 -185 6 -233 39 -19 50 -20 83 -10 77 23 117
110 83 178 -35 71 -110 100 -172 65z"/>
<path d="M5070 1585 l0 -65 54 0 c64 0 86 16 86 64 0 47 -26 66 -88 66 l-52 0
0 -65z"/>
<path d="M5525 1575 c-52 -115 -54 -105 26 -105 81 0 79 -6 29 104 l-28 61
-27 -60z"/>
</g>
</svg>
