<svg id="Layer_1" data-name="Layer 1" xmlns="http://www.w3.org/2000/svg" viewBox="0 0 144.43 45.01"><defs><style>.cls-1{fill:#004cac;}.cls-2{fill:#00b5f1;}.cls-3{fill:#0b938a;}.cls-4{fill:#2d80c9;}.cls-5{fill:#3ab3a5;}.cls-6{fill:#003c3b;}.cls-7{fill:#005e5c;}.cls-8{fill:#fff;}</style></defs><g id="Group_1593" data-name="Group 1593"><g id="Group_1587" data-name="Group 1587"><path id="Path_2428" data-name="Path 2428" class="cls-1" d="M134.18,11.56a2.32,2.32,0,0,1-3.28,0,2.27,2.27,0,0,1-.66-1.63A2.18,2.18,0,0,1,131,8.2a2.3,2.3,0,0,1,1.59-.63,2.33,2.33,0,0,1,2.32,2.32,2.29,2.29,0,0,1-.7,1.67m-3-3a1.93,1.93,0,0,0-.55,1.35,1.86,1.86,0,0,0,.56,1.37,1.92,1.92,0,0,0,3.27-1.37,1.9,1.9,0,0,0-.56-1.35,1.91,1.91,0,0,0-2.72,0m.35,2.64V8.6h1.24a1.27,1.27,0,0,1,.51.12.64.64,0,0,1,.34.62.55.55,0,0,1-.18.47A.9.9,0,0,1,133,10a.67.67,0,0,1,.36.14.68.68,0,0,1,.23.58V11a.17.17,0,0,0,0,.07.19.19,0,0,0,0,.08l0,.07H133a2.11,2.11,0,0,1,0-.35,1.73,1.73,0,0,0,0-.32.35.35,0,0,0-.2-.18.59.59,0,0,0-.23-.05h-.29v.91Zm1.23-2.06a1.32,1.32,0,0,0-.39-.06h-.17v.75h.26a.61.61,0,0,0,.37-.1.35.35,0,0,0,.14-.3.29.29,0,0,0-.21-.29" transform="translate(-17.79 -2.5)"/><path id="Path_2429" data-name="Path 2429" class="cls-1" d="M84.78,13.23a4.3,4.3,0,0,1-1.69-.35,3.08,3.08,0,0,1-1.36-1.11,3.33,3.33,0,0,1-.54-2,5,5,0,0,1,.34-1.87,4,4,0,0,1,.94-1.37,4.12,4.12,0,0,1,1.36-.82,4.66,4.66,0,0,1,1.61-.28,3.75,3.75,0,0,1,1.8.42,3,3,0,0,1,1.25,1.19,3.55,3.55,0,0,1,.45,1.83,4.77,4.77,0,0,1-.29,1.71A4,4,0,0,1,87.81,12a3.86,3.86,0,0,1-1.31.91,4.41,4.41,0,0,1-1.72.32M85.34,7a2,2,0,0,0-1.28.41,2.61,2.61,0,0,0-.82,1A3.16,3.16,0,0,0,83,9.71a2.11,2.11,0,0,0,.5,1.4,1.65,1.65,0,0,0,1.35.58,2.22,2.22,0,0,0,1-.21,2.43,2.43,0,0,0,.75-.6A3.13,3.13,0,0,0,87,10a3.19,3.19,0,0,0,.15-1A2.31,2.31,0,0,0,86.93,8a1.7,1.7,0,0,0-1.58-1" transform="translate(-17.79 -2.5)"/><path id="Path_2430" data-name="Path 2430" class="cls-1" d="M99.49,13.15,100.41,7h-2.5L98,6.23h0v0a.73.73,0,0,1,.73-.66h6.1l-.12.84v0A.74.74,0,0,1,104,7h-1.89l-.9,6.13Z" transform="translate(-17.79 -2.5)"/><path id="Path_2431" data-name="Path 2431" class="cls-1" d="M110.08,6.18a2.72,2.72,0,0,0-2-.63h-2.44l-1.11,7.61h.94a.9.9,0,0,0,.88-.77h0l.3-2H108a2.89,2.89,0,0,0,1.52-.36,2.15,2.15,0,0,0,.87-.92,2.73,2.73,0,0,0,.28-1.26,2.29,2.29,0,0,0-.61-1.63M108.89,7.9a1.45,1.45,0,0,1-1.26,1.38h-.84l.39-2.6a3.35,3.35,0,0,1,.71,0c.46,0,1.1.18,1,1.26" transform="translate(-17.79 -2.5)"/><path id="Path_2432" data-name="Path 2432" class="cls-1" d="M95.67,5.54,95,10.46,92.78,7a2.76,2.76,0,0,0-2.43-1.43h-.11l-1.12,7.62h1.72l.72-4.93,2.17,3.5a2.77,2.77,0,0,0,2.44,1.42h.1l1.12-7.6ZM95,10.46Z" transform="translate(-17.79 -2.5)"/><path id="Path_2433" data-name="Path 2433" class="cls-1" d="M114.9,5.55h-.59a2.14,2.14,0,0,0-1.86,1.09l-.06.1a.14.14,0,0,1,0,0l-3.25,6.36h1.79l.85-1.75h2.48l.21,1.75h1.85Zm-2.63,4.78,1.46-3,.41,3Z" transform="translate(-17.79 -2.5)"/><path id="Path_2434" data-name="Path 2434" class="cls-1" d="M124,11.53l-.24-.24a3.72,3.72,0,0,0,.31-.67,4.77,4.77,0,0,0,.29-1.71,3.55,3.55,0,0,0-.45-1.83,3,3,0,0,0-1.25-1.19,3.79,3.79,0,0,0-1.81-.42,4.66,4.66,0,0,0-1.61.28,4,4,0,0,0-1.35.82,3.9,3.9,0,0,0-.94,1.37,4.77,4.77,0,0,0-.35,1.86,3.36,3.36,0,0,0,.54,2,3.08,3.08,0,0,0,1.36,1.11,4.49,4.49,0,0,0,1.7.35,4.65,4.65,0,0,0,1.72-.33c.17-.07.33-.16.5-.25l.22.22a1,1,0,0,0,.68.28h1v-1h0a.93.93,0,0,0-.28-.67m-3.77.16a1.7,1.7,0,0,1-1.35-.58,2.07,2.07,0,0,1-.49-1.4,3,3,0,0,1,.27-1.26,2.61,2.61,0,0,1,.82-1A2.11,2.11,0,0,1,120.71,7a1.7,1.7,0,0,1,1.58,1A2.32,2.32,0,0,1,122.52,9a3.17,3.17,0,0,1-.15,1,2.49,2.49,0,0,1-.47.86,2.29,2.29,0,0,1-.75.6,2.2,2.2,0,0,1-1,.22" transform="translate(-17.79 -2.5)"/><path id="Path_2435" data-name="Path 2435" class="cls-1" d="M80.54,7.26s-2.48-.77-3.67.39-1.22,3,.09,3.74,3.42-.22,3.57-.45a2.21,2.21,0,0,1-.17,1.43c-.35.74-2.4,1.16-4,.59a3.21,3.21,0,0,1-2.18-3.62,4.11,4.11,0,0,1,3.29-3.71,8.58,8.58,0,0,1,3.87.17Z" transform="translate(-17.79 -2.5)"/><path id="Path_2436" data-name="Path 2436" class="cls-1" d="M129.06,7.57h-1.29a1,1,0,0,0-1,.81l-.72,4.77h0A3.58,3.58,0,0,0,127.45,12a6.77,6.77,0,0,0,1.3-2.29Z" transform="translate(-17.79 -2.5)"/><path id="Path_2437" data-name="Path 2437" class="cls-1" d="M128.23,6.89a1.09,1.09,0,0,0,0-2.17,1.09,1.09,0,0,0-1.09,1.09h0a1.09,1.09,0,0,0,1.09,1.08h0" transform="translate(-17.79 -2.5)"/><path id="Path_2438" data-name="Path 2438" class="cls-2" d="M127.45,12a3.43,3.43,0,0,1-1.38,1.18h1.3a1,1,0,0,0,1-.8l.39-2.67a6.63,6.63,0,0,1-1.3,2.28" transform="translate(-17.79 -2.5)"/></g><g id="Group_1588" data-name="Group 1588"><path id="Path_2439" data-name="Path 2439" class="cls-3" d="M74,23.19c0-2.82,2.1-4.61,5-4.61s4.95,1.69,4.95,4v.72H82.42v-.43c0-1.71-1.4-2.81-3.41-2.81A3.16,3.16,0,0,0,75.6,23a4.86,4.86,0,0,0,0,.54v5.58a3.17,3.17,0,0,0,2.88,3.43H79c2,0,3.41-1.1,3.41-2.81v-.64H84V30c0,2.31-2,4-4.95,4s-5-1.8-5-4.61Z" transform="translate(-17.79 -2.5)"/><path id="Path_2440" data-name="Path 2440" class="cls-3" d="M86.21,25.94c0-2.69,1.71-4.32,4.46-4.32s4.47,1.63,4.47,4.32v3.64c0,2.69-1.72,4.31-4.47,4.31s-4.46-1.63-4.46-4.31Zm1.5,3.39c0,2.11,1.06,3.21,3,3.21s3-1.1,3-3.21V26.2c0-2.12-1-3.22-3-3.22s-3,1.1-3,3.22Z" transform="translate(-17.79 -2.5)"/><path id="Path_2441" data-name="Path 2441" class="cls-3" d="M97.77,21.84H99.1l.1,1.29a4.21,4.21,0,0,1,3.07-1.5,3.19,3.19,0,0,1,3.24,1.78,4.36,4.36,0,0,1,3.32-1.78c2.65,0,3.69,1.31,3.69,4v8.06H111V25.9c0-2-.38-2.92-2.29-2.92a3.78,3.78,0,0,0-2.86,1.65,12.09,12.09,0,0,1,.09,1.21v7.85h-1.5V26.11c0-2-.38-3.13-2.29-3.13a3.82,3.82,0,0,0-2.9,1.69v9h-1.5Z" transform="translate(-17.79 -2.5)"/><path id="Path_2442" data-name="Path 2442" class="cls-3" d="M115.1,25.94c0-2.69,1.71-4.32,4.46-4.32S124,23.25,124,25.94V28.1H116.6v1.23c0,2.11,1.06,3.21,3,3.21,2.11,0,3-1.22,3-2.54v-.12H124v.34c0,1.86-1.59,3.68-4.4,3.68s-4.47-1.63-4.47-4.32Zm7.43.83V26.2c0-2.12-1.06-3.22-3-3.22s-3,1.1-3,3.22v.57Z" transform="translate(-17.79 -2.5)"/><path id="Path_2443" data-name="Path 2443" class="cls-3" d="M126.61,21.84h1.32l.12,1.48a4.16,4.16,0,0,1,3.24-1.69h.13V23h-.24a3.77,3.77,0,0,0-3.06,1.84v8.82h-1.5Z" transform="translate(-17.79 -2.5)"/><path id="Path_2444" data-name="Path 2444" class="cls-3" d="M132.25,25.94c0-2.69,1.71-4.32,4.46-4.32s4.4,1.57,4.4,3.67v.33h-1.46V25.5c0-1.48-.85-2.52-2.94-2.52-1.9,0-3,1.1-3,3.22v3.13c0,2.11,1.06,3.21,3,3.21,2.1,0,2.94-1.05,2.94-2.54v-.12h1.46v.34c0,2-1.59,3.68-4.4,3.68s-4.46-1.63-4.46-4.32Z" transform="translate(-17.79 -2.5)"/><path id="Path_2445" data-name="Path 2445" class="cls-3" d="M143.7,23.17,142.36,23v-1.2h2.84V33.69h-1.5ZM143.44,19c0-.79.38-1.15.95-1.15s1,.36,1,1.15a.94.94,0,0,1-.79,1.07h-.23c-.57,0-.95-.33-.95-1.07Z" transform="translate(-17.79 -2.5)"/><path id="Path_2446" data-name="Path 2446" class="cls-3" d="M147.83,25.84c0-2.69,1.37-4.22,4-4.22a5,5,0,0,1,3.36,1.5l.11-1.29h1.33V33.69h-1.33l-.11-1.29a4.87,4.87,0,0,1-3.36,1.5c-2.65,0-4-1.53-4-4.22Zm1.5,3.57c0,2,.72,3.14,2.62,3.14a4.39,4.39,0,0,0,3.2-1.7V24.67A4.51,4.51,0,0,0,152,23c-1.9,0-2.62,1.1-2.62,3.13Z" transform="translate(-17.79 -2.5)"/><path id="Path_2447" data-name="Path 2447" class="cls-3" d="M159.4,17.82h1.5V31.47c0,.59.09,1,.78,1a2.32,2.32,0,0,0,.53,0v1.16a6.24,6.24,0,0,1-1.22.13c-1.06,0-1.59-.49-1.59-1.67Z" transform="translate(-17.79 -2.5)"/></g><g id="Group_1592" data-name="Group 1592"><g id="Group_1590" data-name="Group 1590"><path id="Rectangle_1605" data-name="Rectangle 1605" class="cls-4" d="M32.74,32.5H62.79v6.32a8.68,8.68,0,0,1-8.68,8.68H41.42a8.68,8.68,0,0,1-8.68-8.68h0V32.5Z" transform="translate(-17.79 -2.5)"/><path id="Rectangle_1606" data-name="Rectangle 1606" class="cls-3" d="M32.74,32.5H62.79v6.32a8.68,8.68,0,0,1-8.68,8.68H41.42a8.68,8.68,0,0,1-8.68-8.68h0V32.5Z" transform="translate(-17.79 -2.5)"/><path id="Path_2448" data-name="Path 2448" class="cls-5" d="M52.71,2.5H39.13c-.62,0-6.39,8.71-6.39,9.38V32.5H62.79V12.56Z" transform="translate(-17.79 -2.5)"/><path id="Path_2449" data-name="Path 2449" class="cls-5" d="M52.71,2.5H37.29A4.55,4.55,0,0,0,32.74,7h0V17.5H62.79V12.56Z" transform="translate(-17.79 -2.5)"/><g id="Group_1589" data-name="Group 1589"><path id="Rectangle_1607" data-name="Rectangle 1607" class="cls-3" d="M58.34,29.27h0a1.43,1.43,0,0,1-1.43-1.43V12.2a1.43,1.43,0,0,1,1.43-1.42h0a1.43,1.43,0,0,1,1.42,1.42V27.84A1.43,1.43,0,0,1,58.34,29.27Z" transform="translate(-17.79 -2.5)"/><path id="Rectangle_1608" data-name="Rectangle 1608" class="cls-3" d="M55,29.27h0a.87.87,0,0,1-.87-.87V11.65a.87.87,0,0,1,.87-.87h0a.87.87,0,0,1,.87.87V28.4A.87.87,0,0,1,55,29.27Z" transform="translate(-17.79 -2.5)"/><path id="Rectangle_1609" data-name="Rectangle 1609" class="cls-3" d="M52.3,29.27h0a.86.86,0,0,1-.86-.87V11.65a.86.86,0,0,1,.86-.87h0a.87.87,0,0,1,.87.87V28.4A.87.87,0,0,1,52.3,29.27Z" transform="translate(-17.79 -2.5)"/><path id="Rectangle_1610" data-name="Rectangle 1610" class="cls-3" d="M49.57,29.27h0a.87.87,0,0,1-.87-.87V11.65a.87.87,0,0,1,.87-.87h0a.86.86,0,0,1,.86.87V28.4A.86.86,0,0,1,49.57,29.27Z" transform="translate(-17.79 -2.5)"/><path id="Rectangle_1611" data-name="Rectangle 1611" class="cls-3" d="M42.62,29.27h0a.87.87,0,0,1-.87-.87V11.65a.87.87,0,0,1,.87-.87h0a.87.87,0,0,1,.86.87V28.4A.87.87,0,0,1,42.62,29.27Z" transform="translate(-17.79 -2.5)"/><path id="Rectangle_1612" data-name="Rectangle 1612" class="cls-3" d="M39.39,29.27h0A1.38,1.38,0,0,1,38,27.89V12.15a1.37,1.37,0,0,1,1.38-1.37h0a1.37,1.37,0,0,1,1.38,1.37V27.89A1.38,1.38,0,0,1,39.39,29.27Z" transform="translate(-17.79 -2.5)"/><rect id="Rectangle_1613" data-name="Rectangle 1613" class="cls-3" x="26.41" y="8.28" width="3.5" height="18.49" rx="1.64"/></g><path id="Path_2450" data-name="Path 2450" class="cls-6" d="M55.91,13.77l6.88-1.2L52.71,2.5,52,10.06C51.61,12.66,53.38,14.32,55.91,13.77Z" transform="translate(-17.79 -2.5)"/><path id="Path_2451" data-name="Path 2451" class="cls-3" d="M57.29,12.56h5.5L52.71,2.5V8A4.56,4.56,0,0,0,57.29,12.56Z" transform="translate(-17.79 -2.5)"/></g><path id="Path_2452" data-name="Path 2452" class="cls-6" d="M45.26,32.5H32.74V42.91A4.49,4.49,0,0,0,33,44.27,18.19,18.19,0,0,0,45.26,32.5Z" transform="translate(-17.79 -2.5)"/><ellipse id="Ellipse_136" data-name="Ellipse 136" class="cls-7" cx="14.12" cy="25.25" rx="14.12" ry="14.1"/><g id="Group_1591" data-name="Group 1591"><path id="Path_2453" data-name="Path 2453" class="cls-8" d="M34.51,23.79c0-1-.9-1.44-2.58-1.44s-2.53.46-2.53,1.44v.46c0,.7.65,1.09,1.14,1.25l4.07,1.41c1.5.51,2.45,1.38,2.45,2.65v1.52c0,1.47-1.12,2.82-3.75,3.18v1.81c0,.38-.14.54-.49.54h-1.6c-.35,0-.51-.16-.51-.54V34.28c-2.83-.3-3.94-1.71-3.94-3.2v-.67c0-.33.13-.49.46-.49h1.44c.35,0,.46.16.46.49V31c0,1,1,1.44,2.77,1.44S34.67,32,34.67,31v-.73c0-.65-.54-1-1.44-1.3l-4.07-1.41A3.09,3.09,0,0,1,27,24.79v-1c0-1.46.95-2.93,3.66-3.25V18.72c0-.38.17-.55.52-.55h1.6c.35,0,.49.17.49.55v1.81c2.61.38,3.56,1.82,3.56,3.26v.65c0,.35-.11.48-.49.48H35c-.33,0-.46-.13-.46-.48Z" transform="translate(-17.79 -2.5)"/></g></g></g></svg>