<?xml version="1.0" encoding="UTF-8"?><svg id="a" xmlns="http://www.w3.org/2000/svg" xmlns:xlink="http://www.w3.org/1999/xlink" viewBox="0 0 300 120"><defs><style>.f{fill:url(#e);}.g{fill:url(#d);}.h{fill:url(#c);}.i{fill:url(#b);}.j{fill:#05d;}.k{fill:#0036a3;}</style><linearGradient id="b" x1="11.37" y1="9.05" x2="108.31" y2="105.98" gradientTransform="matrix(1, 0, 0, 1, 0, 0)" gradientUnits="userSpaceOnUse"><stop offset=".03" stop-color="aqua"/><stop offset=".35" stop-color="#00b0f3"/><stop offset=".43" stop-color="#009ae6"/><stop offset=".7" stop-color="#005bc2"/><stop offset=".9" stop-color="#0034ac"/><stop offset="1" stop-color="#0026a4"/></linearGradient><radialGradient id="c" cx="89.07" cy="81.6" fx="89.07" fy="81.6" r="29.93" gradientTransform="matrix(1, 0, 0, 1, 0, 0)" gradientUnits="userSpaceOnUse"><stop offset="0" stop-color="aqua"/><stop offset=".13" stop-color="#00fafd"/><stop offset=".27" stop-color="#00eef8"/><stop offset=".4" stop-color="#00d9ef"/><stop offset=".54" stop-color="#00bce3"/><stop offset=".68" stop-color="#0097d3"/><stop offset=".83" stop-color="#0069c0"/><stop offset=".97" stop-color="#0033a9"/><stop offset="1" stop-color="#0026a4"/></radialGradient><linearGradient id="d" x1="50.76" y1="106.02" x2="61.82" y2="106.02" gradientTransform="matrix(1, 0, 0, 1, 0, 0)" gradientUnits="userSpaceOnUse"><stop offset="0" stop-color="#00217c" stop-opacity="0"/><stop offset=".15" stop-color="#002179" stop-opacity=".09"/><stop offset=".39" stop-color="#002173" stop-opacity=".35"/><stop offset=".69" stop-color="#002169" stop-opacity=".76"/><stop offset=".85" stop-color="#002164"/></linearGradient><linearGradient id="e" x1="5836.4" y1="-5197.07" x2="5847.46" y2="-5197.07" gradientTransform="translate(-5733.59 5240.74)" xlink:href="#d"/></defs><g><path class="j" d="M88.81,76.64h14.51c8.04,0,13,4.75,13,12.25v2.43c0,7.5-4.96,12.25-13,12.25h-7.01v10.84h-7.5v-37.76Zm14.51,20.82c3.56,0,5.5-2.37,5.5-6.8v-1.13c0-4.42-1.94-6.74-5.5-6.74h-7.01v14.67h7.01Z"/><path class="j" d="M120.85,95.04c0-7.07,4.69-11.38,12.3-11.38s12.19,4.32,12.19,11.38v5.56h-17.32v2.75c0,4.1,1.83,5.93,5.12,5.93,3.51,0,4.96-2.16,4.96-4.59v-.7h7.12v1.13c0,5.02-4.42,9.82-12.08,9.82s-12.3-4.32-12.3-11.38v-8.52Zm17.37,1.08v-.76c0-3.99-1.73-6.04-5.07-6.04s-5.18,1.94-5.18,6.04v.76h10.25Z"/><path class="j" d="M150.79,84.2h6.2l.49,3.51c1.51-2.32,4.48-4.05,7.28-4.05,.32,0,.7,0,.92,.05v6.26c-.32-.05-.92-.11-1.29-.11-2.59,0-5.02,1.29-6.42,3.4v21.15h-7.18v-30.21Z"/><path class="j" d="M167.57,104.7h6.74v.76c0,2.27,1.94,4.21,5.5,4.21,3.18,0,4.69-1.56,4.69-3.56v-.27c0-2.7-3.13-3.45-7.39-4.21-4.86-.81-9.12-3.07-9.12-8.52v-.86c0-5.12,3.78-8.63,11.38-8.63s11.44,4.32,11.44,9.39v.86h-6.64v-.7c0-2.27-1.29-4.21-4.8-4.21-2.97,0-4.21,1.67-4.21,3.61v.32c0,2.37,2.21,3.24,6.31,3.94,5.29,.97,10.09,2.81,10.09,8.42v.97c0,5.07-4.15,8.79-11.76,8.79s-12.25-3.94-12.25-9.39v-.92Z"/><path class="j" d="M196.05,95.04c0-7.07,4.69-11.38,12.3-11.38s12.19,4.32,12.19,11.38v8.52c0,7.07-4.69,11.38-12.19,11.38s-12.3-4.32-12.3-11.38v-8.52Zm7.18,7.93c0,4.1,1.83,6.26,5.12,6.26s5.02-2.16,5.02-6.26v-7.34c0-4.1-1.78-6.26-5.02-6.26s-5.12,2.16-5.12,6.26v7.34Z"/><path class="j" d="M226.1,84.2h6.31l.38,2.86c1.94-2.05,4.53-3.4,7.44-3.4,7.07,0,9.66,3.72,9.66,10.25v20.5h-7.18v-19.85c0-3.45-1.02-4.96-4.15-4.96-2,0-3.94,1.29-5.29,2.86v21.96h-7.18v-30.21Z"/><path class="j" d="M255.61,89.54l-2.37-.27v-5.07h9.55v30.21h-7.18v-24.87Zm-.76-11.87c0-2.7,1.62-3.72,4.05-3.72s4.21,1.02,4.21,3.72-1.67,3.61-4.21,3.61-4.05-.97-4.05-3.61Z"/><path class="j" d="M268.5,94.55c0-7.12,2.75-10.9,9.82-10.9,2.81,0,5.77,1.35,7.66,3.4l.49-2.86h6.2v30.21h-6.26l-.43-2.86c-1.73,1.83-4.59,3.4-7.66,3.4-7.07,0-9.82-3.78-9.82-10.9v-9.5Zm7.17,8.96c0,3.83,1.13,5.5,4.26,5.5,2.05,0,4.21-1.29,5.56-2.86v-13.7c-1.35-1.56-3.56-2.86-5.56-2.86-3.13,0-4.26,1.67-4.26,5.5v8.42Z"/></g><g><g><path class="k" d="M232.17,62.01c-.84,.82-1.86,1.22-3.04,1.22s-2.25-.43-3.09-1.26c-.83-.83-1.26-1.86-1.26-3.08s.46-2.33,1.37-3.16c.85-.77,1.84-1.18,2.98-1.18s2.23,.42,3.07,1.28c.84,.84,1.27,1.86,1.27,3.06s-.44,2.28-1.3,3.12m-5.59-5.65c-.69,.72-1.04,1.56-1.04,2.52,0,1.02,.35,1.86,1.05,2.56,.7,.71,1.56,1.05,2.54,1.05s1.83-.35,2.52-1.05c.7-.71,1.06-1.56,1.06-2.56s-.36-1.8-1.05-2.52c-.7-.73-1.55-1.07-2.53-1.07s-1.85,.34-2.55,1.07m.65,4.94v-4.82c.29,0,.75,0,1.34,.01,.59,0,.92,0,.98,.01,.38,.01,.7,.12,.95,.23,.43,.24,.64,.63,.64,1.16,0,.41-.1,.69-.33,.87-.22,.17-.5,.3-.84,.34,.31,.05,.53,.14,.69,.27,.29,.22,.42,.6,.42,1.08v.43c0,.06,0,.09,.01,.14,0,.05,.01,.1,.03,.15l.05,.12h-1.21c-.04-.14-.06-.35-.08-.66-.02-.3-.03-.49-.07-.59-.08-.17-.19-.3-.36-.35-.09-.06-.25-.08-.43-.09l-.28-.02h-.26v1.7h-1.26Zm2.3-3.85c-.17-.07-.41-.11-.73-.11h-.31v1.4h.49c.3,0,.53-.07,.69-.19,.16-.12,.26-.3,.26-.56s-.13-.45-.39-.54"/><path class="k" d="M139.66,65.14c-1.07,0-2.14-.21-3.17-.65-1.03-.42-1.88-1.13-2.55-2.09-.67-.96-1-2.2-1-3.68,0-1.3,.22-2.47,.64-3.49,.43-1.01,1.02-1.88,1.76-2.56,.74-.68,1.6-1.21,2.54-1.55,.94-.34,1.96-.52,3.02-.52,1.24,0,2.38,.26,3.38,.78,.99,.51,1.78,1.27,2.34,2.24,.56,.97,.85,2.12,.85,3.42,0,1.15-.18,2.23-.54,3.21-.36,.98-.89,1.84-1.58,2.57-.68,.73-1.51,1.3-2.46,1.7-.95,.4-2.04,.6-3.22,.6m1.06-11.65c-.92,0-1.73,.26-2.41,.78-.67,.51-1.19,1.16-1.53,1.94-.34,.77-.52,1.56-.52,2.35,0,1.02,.31,1.91,.92,2.62,.62,.73,1.47,1.09,2.54,1.09,.67,0,1.29-.13,1.83-.4,.54-.27,1.01-.65,1.4-1.12,.39-.47,.69-1.01,.88-1.6,.19-.59,.29-1.2,.29-1.83,0-.75-.15-1.43-.43-2-.29-.57-.69-1.02-1.2-1.34-.51-.32-1.1-.48-1.77-.48"/><path class="k" d="M167.21,65l1.71-11.48h-4.69l.23-1.49h0v-.04c.08-.7,.67-1.23,1.37-1.23h11.44l-.23,1.58v.03c-.12,.66-.69,1.15-1.36,1.15h-3.54l-1.69,11.48h-3.23Z"/><path class="k" d="M187.03,51.94c-.77-.79-2.03-1.19-3.76-1.19h-4.57l-2.08,14.25h1.76c.82,0,1.52-.61,1.63-1.43v-.03l.57-3.78h2.59c1.14,0,2.1-.23,2.85-.67,.75-.44,1.3-1.02,1.64-1.72,.34-.71,.52-1.5,.52-2.36,0-1.22-.38-2.28-1.15-3.07m-2.22,3.21c-.17,1.91-1.74,2.58-2.36,2.58h-1.57l.73-4.86s.62-.13,1.32-.07c.87,.07,2.06,.34,1.88,2.35"/><path class="k" d="M160.04,50.74l-1.35,9.21-4.06-6.55c-.96-1.69-2.68-2.66-4.56-2.66h-.19l-2.11,14.25h3.22l1.36-9.22,4.06,6.55c.96,1.68,2.68,2.66,4.57,2.66h.19l2.1-14.25h-3.23Zm-1.34,9.22h0Z"/><path class="k" d="M196.06,50.76h-1.1c-1.43,.01-2.75,.76-3.48,2.05l-.12,.19c-.03,.06-.05,.09-.05,.09l-6.1,11.92h3.36l1.59-3.28h4.64l.39,3.28h3.47l-2.61-14.25Zm-4.93,8.97l2.74-5.64,.77,5.64h-3.5Z"/><path class="k" d="M213.01,61.96l-.45-.44c.23-.39,.43-.81,.59-1.25,.36-.98,.54-2.06,.54-3.21,0-1.3-.28-2.45-.85-3.42-.56-.97-1.35-1.72-2.34-2.24-1-.52-2.14-.78-3.38-.78-1.06,0-2.07,.17-3.02,.52-.94,.34-1.79,.87-2.54,1.55-.74,.68-1.33,1.55-1.76,2.56-.43,1.02-.64,2.19-.64,3.49,0,1.48,.33,2.72,1,3.68,.67,.96,1.53,1.66,2.56,2.09,1.03,.43,2.1,.65,3.17,.65,1.19,0,2.27-.2,3.22-.6,.33-.14,.64-.3,.94-.48l.43,.42c.32,.32,.77,.52,1.26,.52h1.78v-1.78h0c0-.49-.2-.94-.52-1.26m-7.05,.3c-1.07,0-1.92-.36-2.54-1.09-.61-.72-.92-1.6-.92-2.62,0-.79,.17-1.58,.51-2.35,.34-.78,.86-1.43,1.53-1.94,.68-.51,1.49-.78,2.41-.78,.67,0,1.26,.16,1.77,.48,.51,.32,.91,.77,1.2,1.34,.28,.57,.43,1.25,.43,2,0,.63-.1,1.24-.29,1.83-.19,.59-.49,1.13-.88,1.61-.39,.47-.86,.85-1.4,1.12-.54,.27-1.16,.4-1.83,.4"/><path class="k" d="M131.71,53.97s-4.64-1.44-6.87,.73c-2.24,2.17-2.29,5.62,.17,6.99,2.46,1.37,6.4-.41,6.68-.85,0,0,.36,1.3-.31,2.69-.66,1.38-4.49,2.17-7.57,1.1-3.1-1.07-4.42-3.76-4.08-6.77,.33-3.01,2.08-5.96,6.17-6.96,3.39-.83,7.25,.33,7.25,.33l-1.43,2.74Z"/></g><path class="k" d="M221.06,49.21c-1.13,0-2.05,.92-2.05,2.05s.92,2.05,2.05,2.05,2.05-.92,2.05-2.05-.92-2.05-2.05-2.05"/><path class="k" d="M220.19,54.59c-.93,0-1.7,.65-1.89,1.52l-1.35,9.01h2.48c.92,0,1.69-.64,1.88-1.51l1.31-9.03h-2.44Zm.91,8.75c-.19,.87-.96,1.51-1.88,1.51,0,0-1.08,0-1.81,0,1.87-1.26,3.34-3.05,4.22-5.15l-.52,3.63Z"/></g><g><path class="i" d="M31.33,98.05c-4.46,0-8.07-3.61-8.07-8.07V29c0-4.45,3.61-8.07,8.07-8.07h60.99c4.46,0,8.07,3.61,8.07,8.07v36.14l15.93-15.93V21.12c0-8.9-7.22-16.12-16.12-16.12H23.45C14.54,5,7.33,12.22,7.33,21.12V97.87c0,8.9,7.22,16.12,16.12,16.12H61.82l15.93-15.93H31.33Z"/><path class="h" d="M77.75,71.58c0-3.55,2.89-6.44,6.44-6.44h16.19l15.93-15.93h-32.12c-12.36,0-22.37,10.02-22.37,22.37v42.41l15.93-15.93v-26.48Z"/><rect class="g" x="50.76" y="98.05" width="11.06" height="15.93"/><rect class="f" x="102.82" y="35.71" width="11.06" height="15.93" transform="translate(152.02 -64.67) rotate(90)"/></g></svg>